<svg xmlns="http://www.w3.org/2000/svg" width="256" height="177" viewBox="0 0 256 177" fill="none">
  <path d="M49.383 82.9312C28.1694 64.4016 10.1086 90.6519 3.72998 106.093V177H255.505V11.3928C216.413 -20.8581 212.312 78.8265 205.478 90.2609C198.644 101.695 177.594 92.0201 163.926 78.8265C150.257 65.633 130.848 68.2717 108.705 97.5907C86.5615 126.91 75.9 106.093 49.383 82.9312Z" fill="url(#paint0_linear_403_500)"/>
  <mask id="mask0_403_500" style="mask-type:alpha" maskUnits="userSpaceOnUse" x="3" y="5" width="253" height="172">
    <path d="M49.3494 82.9312C28.1514 64.4016 10.104 90.6519 3.72998 106.093V177H255.32V11.3928C216.257 -20.8581 212.159 78.8265 205.33 90.2609C198.501 101.695 177.466 92.0201 163.808 78.8265C150.149 65.633 130.754 68.2717 108.627 97.5907C86.5006 126.91 75.847 106.093 49.3494 82.9312Z" fill="#C4C4C4"/>
  </mask>
  <g mask="url(#mask0_403_500)">
    <path d="M3.72998 106.093C10.104 90.6519 28.1514 64.4016 49.3494 82.9312C75.847 106.093 86.5006 126.91 108.627 97.5907C130.754 68.2717 150.149 65.633 163.808 78.8265C177.466 92.0201 198.501 101.695 205.33 90.2609C212.159 78.8265 216.257 -20.8581 255.32 11.3928" stroke="#26FF91" stroke-width="3"/>
  </g>
  <path d="M149.632 72C149.632 74.5188 147.737 76.5 145.47 76.5C143.203 76.5 141.307 74.5188 141.307 72C141.307 69.4812 143.203 67.5 145.47 67.5C147.737 67.5 149.632 69.4812 149.632 72Z" fill="#E9ECEB" stroke="#13ADB7"/>
  <path d="M246.612 5C246.612 7.51877 244.717 9.5 242.45 9.5C240.183 9.5 238.287 7.51877 238.287 5C238.287 2.48123 240.183 0.5 242.45 0.5C244.717 0.5 246.612 2.48123 246.612 5Z" fill="#E9ECEB" stroke="#13ADB7"/>
  <path d="M8.825 104C8.825 106.519 6.92905 108.5 4.6625 108.5C2.39595 108.5 0.5 106.519 0.5 104C0.5 101.481 2.39595 99.5 4.6625 99.5C6.92905 99.5 8.825 101.481 8.825 104Z" fill="#E9ECEB" stroke="#13ADB7"/>
  <defs>
    <linearGradient id="paint0_linear_403_500" x1="123.09" y1="-133" x2="130.596" y2="176.976" gradientUnits="userSpaceOnUse">
      <stop stop-color="#26FF91"/>
      <stop offset="1" stop-color="white" stop-opacity="0"/>
    </linearGradient>
  </defs>
</svg>